<svg xmlns="http://www.w3.org/2000/svg" width="512" height="186" fill="none"><path fill="#777" fill-rule="evenodd" d="M196.773 43.068a8.331 8.331 0 0 1 .089 8.664c-5.627 8.302-8.16 18.136-7.188 27.942v-.027c1.944 27.496-14.257 56.33-43.744 72.572-29.487 16.241-63.982 15.294-88.255.083v.028c-8.513-5.655-18.823-8.441-29.222-7.912-3.27-.028-6.274-1.699-7.895-4.374-1.62-2.674-1.679-5.961-.088-8.664 5.627-8.302 8.16-18.136 7.188-27.942v.028c-1.915-27.497 14.287-56.33 43.774-72.544 29.487-16.242 63.981-15.295 88.254-.084 8.543 5.655 18.824 8.441 29.222 7.912 3.211.028 6.216 1.672 7.865 4.318ZM330.304 150.575V95.164h41.417v12.369h-25.098v9.528h21.77v10.642h-21.77v10.447h25.953v12.425h-42.272Zm142.074 0v-23.541l-.648.223a72.085 72.085 0 0 1-19.619 3.483h-.501v19.835h-17.026V95.164h17.026v23.206h.501c.412 0 8.808-.055 19.943-3.538l.353-.111V95.164h17.026v55.411h-17.055Zm-246.088-.056V95.303h41.181v13.484h-24.214v10.893h19.236v11.7h-19.236v19.139H226.29Zm62.155-62.431V32.677h42.507v12.37h-26.217v9.499h21.769v10.642h-21.769v10.447h25.952v12.453h-42.242Zm95.324-.028V32.649h17.056v41.872h23.242V88.06h-40.298Zm-46.248 0V32.649h17.056v41.872h23.242V88.06h-40.298Zm120.835 1.449c-6.216 0-11.312-1.115-16.496-3.622-4.802-2.257-8.838-5.795-11.577-10.168-2.74-4.374-4.095-9.528-4.095-15.35 0-5.823 1.355-10.977 4.095-15.35 2.739-4.375 6.746-7.913 11.547-10.17 5.185-2.506 10.281-3.593 16.496-3.593 6.216 0 11.312 1.114 16.497 3.594 4.801 2.256 8.837 5.794 11.576 10.168 2.74 4.374 4.124 9.528 4.124 15.35 0 5.823-1.384 10.977-4.124 15.35-2.739 4.374-6.775 7.912-11.576 10.169-5.156 2.507-10.252 3.622-16.467 3.622Zm0-44.686a16.125 16.125 0 0 0-7.983 1.922 13.699 13.699 0 0 0-5.597 5.46c-1.296 2.34-1.974 5.099-1.974 8.22 0 3.12.648 5.877 1.974 8.217 1.267 2.285 3.211 4.18 5.597 5.433a18.065 18.065 0 0 0 15.966 0c2.415-1.254 4.36-3.12 5.656-5.405 1.325-2.34 2.003-5.098 2.003-8.218 0-3.092-.678-5.878-2.003-8.218-1.296-2.285-3.241-4.18-5.627-5.46-2.474-1.366-5.214-2.007-8.012-1.95ZM264.113 88.06V64.52l-.648.222c-6.333 2.034-12.932 3.232-19.619 3.483h-.5V88.06h-17.027V32.649h17.027v23.206h.5c.413 0 8.808-.055 19.943-3.538l.353-.111V32.62h17.027v55.411h-17.056v.028Zm138.951 63.546c-.589 0-1.178 0-1.767-.028-4.448-.112-8.808-.975-12.903-2.591-3.8-1.532-6.922-3.677-9.249-6.324a17.205 17.205 0 0 1-2.593-3.9l13.345-6.686a9.074 9.074 0 0 0 1.855 3.844 10.897 10.897 0 0 0 4.419 3.148 18.029 18.029 0 0 0 6.422 1.282h.825c1.472.028 2.945-.167 4.389-.53a9.04 9.04 0 0 0 3.594-1.81 4.147 4.147 0 0 0 1.472-2.926c.118-1.309-.5-2.563-1.62-3.343a11.375 11.375 0 0 0-3.8-1.727c-1.443-.39-3.711-.891-6.804-1.476-4.743-.836-8.69-1.783-11.725-2.786-3.004-1.003-5.685-2.758-7.747-5.07-2.15-2.341-3.152-5.656-2.975-9.862.147-3.65 1.267-6.882 3.358-9.584 2.092-2.702 5.008-4.764 8.631-6.129a31.891 31.891 0 0 1 11.106-1.839c.471 0 .972 0 1.473.028 3.829.084 7.629.836 11.164 2.23a22.388 22.388 0 0 1 8.101 5.515 16.179 16.179 0 0 1 2.621 3.9l-12.224 6.129a7.254 7.254 0 0 0-2.887-4.457c-1.709-1.254-3.889-1.95-6.54-2.062h-.618c-1.179 0-2.387.14-3.506.446a6.489 6.489 0 0 0-2.946 1.644 4.088 4.088 0 0 0-1.178 2.758 3.639 3.639 0 0 0 1.591 3.259c1.09.78 2.327 1.337 3.653 1.672 1.355.334 3.623.808 6.775 1.393a92.454 92.454 0 0 1 11.724 2.674 18.031 18.031 0 0 1 7.953 5.07c2.18 2.368 3.182 5.711 3.034 9.974-.088 3.594-1.414 7.048-3.8 9.834-2.386 2.786-5.714 4.903-9.868 6.352-3.888 1.337-8.13 1.978-12.755 1.978Zm-79.948-.307a32.997 32.997 0 0 1-9.779-1.393 33.448 33.448 0 0 1-5.097-2.089 30.688 30.688 0 0 1-4.566-2.953c-2.739-2.173-5.125-4.736-7.01-7.606a39.108 39.108 0 0 1-2.475-4.29c-.206-.446-.412-.891-.589-1.309l-.118-.279h-3.299v19.362h-17.026V95.303h26.57c4.743 0 8.955.78 12.608 2.285 3.653 1.504 6.422 3.649 8.395 6.407 1.974 2.814 3.005 6.129 2.946 9.5a13.909 13.909 0 0 1-1.414 6.324c-.942 1.894-2.386 3.566-4.124 4.847a28.42 28.42 0 0 1-7.335 3.678l-.53.167.442.836c.884 1.56 2.003 3.008 3.358 4.234.619.585 1.326 1.087 2.033 1.56.736.446 1.502.836 2.297 1.142 1.591.585 3.299.948 5.008 1.059v13.985h-.295v-.028Zm-32.933-30.672h7.453c1.502 0 3.004-.279 4.389-.864a8.791 8.791 0 0 0 3.358-2.451c.854-1.059 1.326-2.341 1.296-3.678.03-1.365-.442-2.674-1.296-3.761a8.248 8.248 0 0 0-3.358-2.451 11.292 11.292 0 0 0-4.389-.864h-7.453v14.069Z" clip-rule="evenodd"/></svg>