<svg xmlns="http://www.w3.org/2000/svg" width="512" height="186" fill="none"><path fill="#777" d="M262.86 60.846h-13.803l-7.785 11.782h13.796l7.792-11.782Zm35.808 31c-7.231.558-20.007 6.596-26.965 19.787-6.958 13.192-6.984 21.335-6.984 21.335s3.67-3.755 9.296-7.686c5.626-3.932 9.812-5.329 9.812-5.329s1.044-4.843 3.642-9.908c2.527-4.928 6.536-10.058 11.497-11.222 10.055-2.362 5.24 14.767-2.146 25.937-3.97 6.003-18.05 23.255-30.172 23.255s-14.462-10.908-11.905-21.108c2.554-10.198 6.09-23.154 23.775-46.696 17.686-23.542 36.828-37.499 47.909-43.364 11.381-6.02 16.018-3.382 16.018-3.382s-14.529 8.352-22.794 18.401c-7.903 9.605-12.619 20.413-8.951 25.709 3.492 5.046 15.801 5.14 29.355-13.125 13.378-18.03 9.999-28.752 9.999-28.752s1.617-.491 2.702-.627c6.525-.81 11.751.795 19.843 4.669 8.478 4.058 16.612 10.568 27.757 15.894a253.681 253.681 0 0 1 11.018-10.633c-15.025-6.826-26.431-16.556-41.168-17.49-12.826-.81-22.939 3.553-22.939 3.553s-3.912-4.973-15.981-3.35c-12.069 1.626-49.253 16.136-80.89 63.423-28.604 42.754-15.126 67.255 5.435 66.975 22.288-.306 43.49-23.441 50.666-42.519 7.175-19.078-1.305-24.25-7.829-23.747Zm43.754-39.728c-3.746 8.523-9.261 14.479-14.688 19.027-6.961 5.835-10.78 5.639-12.434 4.466-4.318-3.07 1.476-14.644 11.533-24.995 10.016-10.31 18.64-13.517 18.64-13.517 0 .12 1.434 4.8-3.051 15.02ZM466.537 39.69c-10.199 6.124-24.339 11.67-37.912 10.448a199.873 199.873 0 0 0-10.805 11.35c23.556 4.337 44.16-9.283 55.13-20.888 6.843-7.236 10.221-13.696 10.221-13.696s-6.533 6.72-16.634 12.786Z"/><path fill="#777" d="M455.394 93.422h-14.515l-2.358 3.401s-2.961-4.986-7.974-4.906c-8.591.138-17.189 6.26-27.18 16.878-7.323 7.779-19.461 25.098-19.461 25.098s-9.314 13.396-14.025 12.346c-8.032-1.791 6.741-29.53 6.741-29.53s7.766-4.477 17.831-12.381c6.337-4.975 13.628-11.818 20.33-18.162 6.094-5.77 13.276-13.605 20.103-22.188a53.46 53.46 0 0 1-5.367.517c-6.122 7.536-12.658 14.28-18.217 19.64-8.274 7.98-15.886 14.51-21.417 18.674-5.3 3.987-8.7 5.783-8.7 5.783s10.111-19.38 26.963-40.792c16.851-21.41 40.447-41.301 38.597-31.865-.529 2.71-2.333 6.596-5.055 11.209a60.57 60.57 0 0 0 5.574-1.369c4.06-7.822 5.444-14.27 2.414-16.132-12.365-7.6-43.814 23.849-59.581 42.114-15.764 18.265-30.031 46.179-30.031 46.179s-2.467.966-5.194 1.448c-1.721.306-2.455.24-2.737.136-.141-.054-.157-.144-.157-.144s13.868-24.198-.33-27.407c-13.702-3.095-37.443 20.563-45.883 37.02-5.792 11.29-9.06 25.504.873 28.888 10.757 3.666 29.029-14.664 33.324-19.99 4.296-5.328 9.658-14.187 9.658-14.187s2.624-.13 4.058-.326c2.744-.377 4.028-.692 4.028-.692s-1.779 4.348-3.702 9.859c-3.587 10.278-6.822 24.982 6.089 25.674 8.227.438 20.296-13.428 20.296-13.428s-3.247 12.329 7.429 13.428c7.882.811 19.353-10.555 19.353-10.555s-2.499 9.792 5.492 10.654c6.84.74 16.551-6.746 24.514-14.982 8.695-8.993 15.364-18.841 15.364-18.841h-5.055s-11.189 15.851-19.046 20.093c-6.45 3.483-4.24-2.097-2.284-5.022 2.157-3.227 29.231-46.14 29.231-46.138l.007-.002Zm-110.587 29.855c-.198.425-3.831 6.324-7.718 10.963-4.187 4.998-11.851 12.521-16.459 10.93-7.203-2.487.723-17.134 5.905-24.238 5.183-7.104 5.772-7.585 5.917-7.77.146-.186.291-.356.418-.136.127.22 1.776 3.138 5.032 5.671 3.27 2.543 6.416 3.886 6.67 3.97.254.084.436.188.235.61Zm3.241-5.279c-.455.707-.781.742-1.726.507-1.662-.42-8.551-3.393-8.498-9.986.048-6.426 9.752-12.72 13.558-10.03 3.552 2.509 1.855 8.924.515 12.196-1.337 3.27-3.552 6.85-3.849 7.313Zm65.938 15.895c-1.917 2.453-3.52 4.669-4.965 6.225-3.09 3.33-5.106 4.88-6.903 5.289-.905.205-2.028.156-2.771-.265-2.638-1.498-.79-7.331 3.801-15.172 4.201-7.167 9.055-14.338 17.034-22.594 8.011-8.288 11.076-8.686 13.318-8.592 1.887.076 2.155 1.927 2.155 1.927s-.134.429-.434.914c-2.644 4.279-15.963 25.523-21.235 32.268Zm-214.099 10.368c-8.801-5.076-20.092-8.333-33.063-8.439-33.418-.272-69.802 14.881-94.446 15.086-29.066.237-30.514-20.634-28.36-32.095 4.638-24.69 23.402-48.246 35.466-60.666 12.067-12.42 24.711-22.057 35.223-24.52 10.513-2.464 9.524 4.998 8.238 6.018-1.328.026-3.875.293-5.321 1.226-2.263 1.457-5.286 4.126-5.476 8.357-.325 6.518 8.7 7.66 15.224-5.988 4.45-9.31-2.607-15.627-8.469-16.235-8.039-.836-20.325 1.772-34.99 10.568C58.39 52.882 24.25 86.876 23.38 124.592c-.496 21.516 14.563 33.623 35.226 33.623 20.662 0 48.714-11.81 76.106-12.111 16.96-.136 27.937 5.412 33.496 14.448 0 0 5.524-8.577 17.826-9.036 12.171-.457 25.57 2.727 36.57 9.943-3.67-4.949-14.042-12.198-22.716-17.198Z"/><path fill="#777" d="M123.785 59.527c-14.009-3.333-37.273 18.925-47.077 37.04-6.046 11.173-8.697 25.216 2.067 28.87 10.764 3.653 29.027-14.664 33.322-19.99 4.296-5.328 11.326-16 11.326-16s2.157-.388 3.57-.694c1.413-.306 3.697-.914 3.697-.914s-2.648 4.406-5.039 8.921c-2.833 5.355-10.533 23.178 4.333 28.524 14.203 5.106 34.422-16.188 35.484-16.591 0 0-6.018 14.511 3.33 16.744 10.258 2.449 21.501-9.818 21.501-9.818s-2.367 9.208 5.625 10.072c14.314 1.546 39.632-32.625 39.632-32.625h-5.057s-12.885 15.474-19.081 18.671c-6.196 3.196-3.967-2.483-2.284-5.023 2.148-3.231 29.519-45.917 29.519-45.917h-14.515l-1.683 2.485s-2.991-4.262-7.991-3.958c-14.547.886-31.856 22.527-39.467 32.065-7.61 9.54-24.028 27.754-32.672 24.508-9.42-3.539-.053-19.787 6.143-29.328 6.746-10.385 18.702-20.67 23.429-20.75 5.818-.102 3.534 4.82 3.534 4.82s-4.349-.507-7.501 3.196c-2.231 2.619-4.079 6.443-1.959 8.523 3.425 3.36 7.885-.052 10.547-3.859 8.303-11.861 2.229-18.112-4.293-19.024-13.893-1.946-26.692 14.713-36.421 20.904-6.751 4.291-9.571 3.957-9.571 3.957s11.709-21.44-2.448-24.81Zm62.897 38.359c4.201-7.17 9.924-14.09 17.372-22.766 7.447-8.676 11.154-9.379 13.396-9.284 1.887.078 2.155 1.927 2.155 1.927s-16.182 26.316-22.052 33.826c-1.917 2.453-3.557 4.531-5.003 6.089-3.09 3.33-5.334 4.94-7.066 5.341-.906.207-2.028.155-2.774-.267-2.637-1.498-.624-7.027 3.972-14.866Zm-68.677-8.54c-.201.422-4.822 7.555-8.707 12.193-4.184 4.999-11.918 12.552-16.526 10.961-7.203-2.488.48-17.033 5.663-24.135 5.182-7.105 5.942-8.018 6.09-8.202.145-.187.289-.357.416-.135.127.22 1.776 3.384 5.346 5.513 3.57 2.132 7.231 3.113 7.485 3.197.254.084.434.187.233.608Zm6.025-11.103c-1.339 3.274-2.536 5.337-2.783 5.824-.397.78-1.392.53-1.392.53-1.134-.047-9.949-1.925-9.898-8.518.048-6.426 9.755-12.72 13.558-10.03 3.552 2.51 1.855 8.924.515 12.194Zm320.442 72.15c-.847-.448-1.789-.67-2.826-.67-1.037 0-1.979.224-2.827.67a5.15 5.15 0 0 0-2 1.83 4.648 4.648 0 0 0-.73 2.518c0 .905.243 1.761.73 2.528a5.162 5.162 0 0 0 2 1.819c.848.448 1.79.671 2.827.671s1.979-.225 2.826-.671a5.176 5.176 0 0 0 2-1.819 4.63 4.63 0 0 0 .73-2.528c0-.921-.242-1.746-.73-2.518a5.15 5.15 0 0 0-2-1.83Zm.996 6.425a3.879 3.879 0 0 1-1.548 1.445c-.662.349-1.422.523-2.274.523-.852 0-1.612-.174-2.275-.523a3.861 3.861 0 0 1-1.547-1.445c-.368-.612-.552-1.306-.552-2.077 0-.772.184-1.447.552-2.059a3.853 3.853 0 0 1 1.556-1.444c.67-.351 1.425-.524 2.266-.524.84 0 1.596.175 2.265.524.67.349 1.19.83 1.557 1.444.367.612.552 1.3.552 2.059 0 .758-.185 1.465-.552 2.077Z"/><path fill="#777" d="M443.733 154.659c.157-.24.236-.507.236-.8a1.37 1.37 0 0 0-.423-1.02c-.281-.275-.66-.413-1.131-.413h-2.818v4.541h1.24v-1.655h.945l1.143 1.655h1.418l-1.279-1.765c.288-.123.512-.304.669-.543Zm-1.182-.479a.55.55 0 0 1-.374.119h-1.34v-.882h1.34a.56.56 0 0 1 .374.119.403.403 0 0 1 .139.321.41.41 0 0 1-.139.323Z"/></svg>