<svg width="82" height="29" viewBox="0 0 82 29" fill="none" xmlns="http://www.w3.org/2000/svg">
<g clip-path="url(#clip0_3156_79501)">
<path d="M34.8143 15.0766C34.8143 18.9631 31.8394 21.827 28.1884 21.827C24.5375 21.827 21.5625 18.9631 21.5625 15.0766C21.5625 11.1627 24.5375 8.32617 28.1884 8.32617C31.8394 8.32617 34.8143 11.1627 34.8143 15.0766ZM31.9138 15.0766C31.9138 12.6479 30.1896 10.9862 28.1884 10.9862C26.1872 10.9862 24.463 12.6479 24.463 15.0766C24.463 17.481 26.1872 19.167 28.1884 19.167C30.1896 19.167 31.9138 17.4779 31.9138 15.0766Z" fill="#777777"/>
<path d="M49.1073 15.0766C49.1073 18.9631 46.1323 21.827 42.4814 21.827C38.8304 21.827 35.8555 18.9631 35.8555 15.0766C35.8555 11.1657 38.8304 8.32617 42.4814 8.32617C46.1323 8.32617 49.1073 11.1627 49.1073 15.0766ZM46.2068 15.0766C46.2068 12.6479 44.4826 10.9862 42.4814 10.9862C40.4802 10.9862 38.756 12.6479 38.756 15.0766C38.756 17.481 40.4802 19.167 42.4814 19.167C44.4826 19.167 46.2068 17.4779 46.2068 15.0766Z" fill="#777777"/>
<path d="M62.8067 8.734V20.8531C62.8067 25.8383 59.93 27.8744 56.5292 27.8744C53.328 27.8744 51.4012 25.6862 50.6746 23.8966L53.1999 22.8223C53.6496 23.921 54.7514 25.2175 56.5263 25.2175C58.7031 25.2175 60.0521 23.8449 60.0521 21.261V20.2901H59.9509C59.3017 21.1088 58.051 21.824 56.4727 21.824C53.1701 21.824 50.1445 18.884 50.1445 15.101C50.1445 11.2905 53.1701 8.32617 56.4727 8.32617C58.048 8.32617 59.2987 9.04139 59.9509 9.83574H60.0521V8.73704H62.8067V8.734ZM60.2576 15.101C60.2576 12.724 58.7061 10.9862 56.7317 10.9862C54.7306 10.9862 53.054 12.724 53.054 15.101C53.054 17.4536 54.7306 19.167 56.7317 19.167C58.7061 19.167 60.2576 17.4536 60.2576 15.101Z" fill="#777777"/>
<path d="M67.3466 1.62891V21.4115H64.5176V1.62891H67.3466Z" fill="#777777"/>
<path d="M78.3708 17.2975L80.6221 18.8314C79.8955 19.9301 78.1445 21.8231 75.1189 21.8231C71.3667 21.8231 68.5645 18.8588 68.5645 15.0727C68.5645 11.0584 71.3905 8.32227 74.7943 8.32227C78.2219 8.32227 79.8985 11.1101 80.4464 12.6166L80.7472 13.3836L71.9176 17.121C72.5936 18.4753 73.6448 19.1662 75.1189 19.1662C76.596 19.1662 77.6204 18.4236 78.3708 17.2975ZM71.4411 14.8688L77.3434 12.364C77.0188 11.521 76.0421 10.9336 74.8926 10.9336C73.4185 10.9336 71.3667 12.2636 71.4411 14.8688Z" fill="#777777"/>
<path d="M10.8531 13.3194V10.4555H20.2962C20.3885 10.9546 20.4361 11.545 20.4361 12.1842C20.4361 14.3329 19.8614 16.9898 18.0091 18.8829C16.2075 20.8002 13.9055 21.8229 10.8561 21.8229C5.20397 21.8229 0.451172 17.1176 0.451172 11.3411C0.451172 5.56459 5.20397 0.859375 10.8561 0.859375C13.9829 0.859375 16.2104 2.11329 17.884 3.74764L15.9067 5.76851C14.7066 4.61807 13.0806 3.72329 10.8531 3.72329C6.72569 3.72329 3.49761 7.12285 3.49761 11.3411C3.49761 15.5594 6.72569 18.9589 10.8531 18.9589C13.5303 18.9589 15.055 17.8602 16.0318 16.862C16.8239 16.0524 17.345 14.8959 17.5505 13.3163L10.8531 13.3194Z" fill="#777777"/>
</g>
<defs>
<clipPath id="clip0_3156_79501">
<rect width="81" height="28" fill="white" transform="translate(0.34375 0.716797)"/>
</clipPath>
</defs>
</svg>
