<svg xmlns="http://www.w3.org/2000/svg" width="512" height="186" fill="none"><path fill="#777" d="M121.662 29.833c-28.608 0-52.915 19.182-52.915 48.715 0 26.551 21.627 47.604 52.603 47.604 28.608 0 52.915-19.182 52.915-48.715.063-26.492-21.565-47.604-52.603-47.604Zm0 90.646c-18.636 0-31.973-17.895-31.973-42.574 0-23.627 12.652-42.282 31.724-42.282 18.635 0 31.973 17.895 31.973 42.574 0 23.568-12.652 42.282-31.724 42.282Zm296.735-54.095v4.035l5.734 1.053c1.995.41 2.556 1.871 1.309 4.795l-13.151 29.65c-.561 1.228-1.309 1.228-1.683 0l-12.216-29.65c-1.308-3.04-.56-4.386 1.434-4.795l5.672-1.053v-4.035h-50.672v4.035l5.734 1.053c1.995.41 2.743 1.871 1.434 4.795l-12.652 31.229c-.561 1.228-1.309 1.228-1.683 0l-12.839-31.229c-1.122-3.04-.561-4.386 1.433-4.795l5.672-1.053v-4.035h-32.16v4.094l3.178.643c2.119.41 3.428 1.462 4.301 3.333l21.752 50.177h9.847l21.752-50.177c1.122-2.631 2.431-3.743 4.674-3.743h.873c1.87 0 3.241.644 4.425 3.217l22.749 52.107-6.108 13.626c-3.989 9.065-6.918 10.702-10.658 10.702-1.558 0-3.241-.234-4.986-.234-4.425 0-7.105 2.983-7.105 6.141 0 3.626 3.179 6.141 8.103 6.141 7.105 0 14.085-5.381 19.944-18.13l30.851-68.248c1.434-3.04 3.241-4.386 6.233-4.97l3.116-.527v-4.152h-24.307Zm-199.444 53.101-23.746 2.807c-7.791.936-10.284-1.462-10.284-5.205 0-4.386 5.111-7.895 22.936-7.895h.249c12.902 0 28.172-7.31 28.172-23.217 0-5.088-1.994-9.708-5.734-13.51a15.892 15.892 0 0 1-1.683-8.245c0-11.755 8.539-18.422 17.389-18.422 3.677 0 4.862.527 4.862 2.983 0 .643-.187 1.228-.187 1.988 0 4.152 3.677 8.012 8.975 8.012 5.422 0 8.788-4.035 8.788-8.421 0-6.667-6.42-11.638-18.2-11.638-16.267 0-28.732 9.883-28.732 24.972 0 1.228.187 2.163.187 3.04-4.176-1.637-8.726-2.456-13.276-2.397-12.839 0-28.171 7.31-28.171 23.217 0 7.31 4.425 14.153 12.091 18.129-11.405 1.462-17.887 7.194-17.887 16.141 0 9.065 7.666 15.615 22.063 14.036l20.755-2.398c10.346-1.228 13.774 2.281 13.774 7.31 0 8.831-8.788 15.907-22.936 15.907-11.219 0-15.395-3.742-15.395-9.064l.187-2.632c0-3.216-2.119-5.439-5.547-5.614-3.989 0-6.419 2.631-6.419 6.491 0 8.831 8.975 16.668 27.298 16.668 20.63 0 33.719-12.516 33.719-26.96.062-11.404-9.723-17.662-23.248-16.083Zm-10.658-50.294c6.669 0 12.092 7.076 12.092 17.895 0 9.299-4.55 17.369-11.655 17.369-6.856 0-12.216-7.076-12.216-17.895-.063-9.24 4.487-17.37 11.779-17.37Z"/><path fill="#777" d="M304.153 117.789v-92.4l-25.055 6.023v2.807l7.105 2.164c1.122.41 1.558 1.228 1.558 2.28v78.775c0 1.462-1.308 2.573-3.178 2.573l-6.358.117-6.731-.117c-1.87 0-3.178-1.052-3.178-2.573V64.162l-24.993 5.965v2.807l7.105 2.163c1.122.41 1.558 1.229 1.558 2.281v40.47c0 1.228-.685 1.871-1.683 1.988l-5.796.643v4.269h68.247v-4.269l-6.918-.643c-.935-.175-1.683-.819-1.683-2.047Z"/></svg>