<svg xmlns="http://www.w3.org/2000/svg" width="512" height="172" fill="none"><path fill="#777" d="M271.682 121.569c0 7.008-8.863 15.62-16.073 15.62h-6.562c.006-42.883.006-90.96 0-99.493a1.823 1.823 0 0 1 .147-.738c.101-.234.249-.447.437-.628.187-.18.411-.324.657-.422.247-.099.512-.15.78-.153h18.583c1.117 0 2.031.884 2.031 1.957v83.857Zm-30.285 30.669c0 4.435-2.301 11.865-17.713 11.865-29.869 0-48.202-22.073-48.202-37.904 0 0-.034-51.188-.034-88.487a1.812 1.812 0 0 1 .148-.74c.1-.234.248-.448.436-.628a2.05 2.05 0 0 1 .66-.422c.247-.099.512-.15.78-.151h18.608c1.117 0 2.034.877 2.034 1.956v82.247c0 13.589 11.401 24.611 25.456 24.611h17.837l-.01 7.653Zm29.665-123.86h-21.408c-4.552 0-8.26 3.587-8.26 7.987V137.2h-17.837c-9.841 0-17.817-7.713-17.817-17.225V36.365c0-4.41-3.701-7.99-8.263-7.99h-21.418c-4.562 0-8.264 3.58-8.27 7.99-.01 36.457.033 89.837.033 89.837.003 28.058 32.533 45.286 55.855 45.286 15.643 0 25.36-7.392 25.36-19.301v-7.602h6.569c11.524 0 23.716-11.828 23.716-23.016V36.365c.01-4.41-3.692-7.99-8.26-7.99v.004ZM144.533 135.407c.003.253-.048.503-.148.738-.1.234-.249.447-.437.628a2.04 2.04 0 0 1-.659.421 2.16 2.16 0 0 1-.78.151h-18.607a2.125 2.125 0 0 1-1.444-.582 1.887 1.887 0 0 1-.59-1.372V53.144c0-13.59-11.405-24.611-25.457-24.611H78.574V20.88c0-4.426 2.301-11.865 17.714-11.865 29.868 0 48.208 22.072 48.208 37.904 0 0 .034 51.436.034 88.487h.003Zm-94.223 1.953a2.114 2.114 0 0 1-1.441-.585 1.881 1.881 0 0 1-.583-1.374V51.558c0-7.008 8.863-15.633 16.07-15.633h6.569c-.01 61.41-.01 92.834 0 99.471a1.883 1.883 0 0 1-.585 1.374c-.38.367-.9.576-1.443.583H50.313l-.003.006Zm101.823-90.44c.003-28.062-32.526-45.29-55.845-45.29-15.646 0-25.363 7.392-25.363 19.301v7.603h-6.566c-11.528 0-23.72 11.827-23.72 23.016v85.203c0 4.41 3.702 7.99 8.26 7.99h21.405c.134 0 .247-.035.38-.035 4.376-.198 7.88-3.674 7.88-7.955V35.919h17.84c9.838 0 17.817 7.713 17.817 17.225v83.608c0 4.41 3.702 7.99 8.26 7.99h21.422c4.562 0 8.26-3.57 8.26-7.99.016-37.136-.027-89.837-.027-89.837l-.003.004Zm308.549 90.283a.507.507 0 0 1-.407-.189l-18.477-23.17h-.177v22.868a.471.471 0 0 1-.146.351.524.524 0 0 1-.367.149h-6.533a.542.542 0 0 1-.366-.148.472.472 0 0 1-.147-.349V70.998c0-.277.23-.5.513-.5h6.533c.283 0 .513.223.513.5v41.908h.177l17.35-21.217a.736.736 0 0 1 .266-.21.778.778 0 0 1 .337-.073h7.603c.224 0 .337.248.197.403l-18.627 21.345 20.391 23.642a.233.233 0 0 1 .037.259.265.265 0 0 1-.23.144h-8.44v.003Zm-45.168 0a.538.538 0 0 1-.366-.148.491.491 0 0 1-.147-.349v-31.116c0-6.879-2.901-10.286-10.631-10.286-3.104 0-5.652.463-8.023 1.4a.541.541 0 0 0-.238.19.495.495 0 0 0-.089.282v39.521a.47.47 0 0 1-.149.349.523.523 0 0 1-.368.147h-6.706a.536.536 0 0 1-.367-.147.48.48 0 0 1-.149-.349v-42.43a.718.718 0 0 1 .121-.406.782.782 0 0 1 .332-.28c4.338-1.847 9.941-3.03 15.626-3.03 12.745 0 18.37 5.354 18.37 15.039v31.116a.508.508 0 0 1-.516.497h-6.7Zm-45.751-25.831c-12.041 1.355-19.157 4.592-19.157 12.664 0 6.203 3.955 9.685 11.338 9.685 2.841 0 5.682-.541 7.543-1.391a.517.517 0 0 0 .21-.188.479.479 0 0 0 .073-.264l-.007-20.506Zm-8.533 26.68c-11.338 0-18.01-4.762-18.01-13.846 0-11.048 11.251-15.294 26.54-16.735v-2.806c0-6.29-3.515-9.093-10.107-9.093-4.028 0-8.397 1.132-11.625 2.761a.253.253 0 0 1-.292-.043.231.231 0 0 1-.055-.085l-1.57-3.904a.488.488 0 0 1-.002-.362.525.525 0 0 1 .252-.273 34.267 34.267 0 0 1 13.992-3.115c10.284 0 16.613 4.675 16.613 14.869v28.936a.72.72 0 0 1-.42.667c-3.768 1.847-9.217 3.029-15.316 3.029Zm-44.717-42.826c-2.815 0-5.362.676-7.56 1.698v34.837c0 .208.114.387.31.463 1.738.685 4.135 1.063 6.369 1.063 9.754 0 13.622-7.987 13.622-19.455 0-11.469-4.568-18.61-12.741-18.61v.004Zm-1.134 42.823c-5.405 0-10.484-1.33-13.679-3.02a.758.758 0 0 1-.29-.28.71.71 0 0 1-.1-.38v-63.38c0-.273.234-.497.507-.497h6.629c.284 0 .514.22.514.497v21.767c2.724-1.358 5.972-2.044 9.494-2.044 11.077 0 18.547 8.839 18.547 22.679-.007 14.803-7.48 24.661-21.625 24.661l.003-.003Z"/></svg>