<?xml version="1.0" standalone="no"?>
<!DOCTYPE svg PUBLIC "-//W3C//DTD SVG 20010904//EN"
 "http://www.w3.org/TR/2001/REC-SVG-20010904/DTD/svg10.dtd">
<svg version="1.0" xmlns="http://www.w3.org/2000/svg"
 width="512.000000pt" height="512.000000pt" viewBox="0 0 512.000000 512.000000"
 preserveAspectRatio="xMidYMid meet">

<g transform="translate(0.000000,512.000000) scale(0.100000,-0.100000)"
fill="#000000" stroke="none">
<path d="M2304 5104 c-57 -20 -118 -75 -145 -131 -18 -36 -23 -65 -23 -132 -1
-108 6 -132 51 -181 l36 -40 -12 -138 c-29 -336 -118 -621 -291 -927 -188
-334 -210 -403 -210 -672 0 -182 0 -184 25 -208 13 -14 31 -25 40 -25 12 0 15
-15 15 -90 0 -82 -2 -90 -19 -90 -11 0 -29 -12 -41 -27 -22 -28 -22 -32 -17
-288 4 -227 9 -286 36 -465 23 -150 34 -256 38 -396 6 -206 -2 -302 -43 -509
-15 -74 -27 -175 -31 -266 -5 -131 -4 -153 15 -215 46 -150 166 -260 320 -293
73 -15 951 -15 1024 0 106 23 197 82 259 168 95 133 104 313 32 666 -25 121
-27 147 -27 380 0 235 2 263 34 460 l34 210 4 583 c3 561 3 585 -17 665 -23
90 -95 246 -191 412 -168 291 -262 592 -291 927 l-12 138 36 40 c45 49 52 74
51 180 -1 102 -25 163 -86 215 -69 58 -105 65 -342 64 -158 0 -221 -4 -252
-15z m431 -576 c13 -172 57 -439 82 -503 4 -13 -31 -15 -257 -15 -226 0 -261
2 -257 15 25 65 68 327 82 508 l7 77 168 0 168 0 7 -82z"/>
</g>
</svg>
